<svg width="170" height="50" viewBox="0 0 170 50" fill="none" xmlns="http://www.w3.org/2000/svg">
<path d="M0.5 25C0.5 11.469 11.469 0.5 25 0.5H145C158.531 0.5 169.5 11.469 169.5 25C169.5 38.531 158.531 49.5 145 49.5H25C11.469 49.5 0.5 38.531 0.5 25Z" stroke="black"/>
<path d="M43.3778 17.9091V31H41.7926V19.3153H35.196V31H33.6108V17.9091H43.3778ZM50.3596 31.2045C49.4732 31.2045 48.6955 30.9936 48.0265 30.5717C47.3617 30.1499 46.8418 29.5597 46.4668 28.8011C46.0961 28.0426 45.9107 27.1562 45.9107 26.142C45.9107 25.1193 46.0961 24.2266 46.4668 23.4638C46.8418 22.701 47.3617 22.1087 48.0265 21.6868C48.6955 21.2649 49.4732 21.054 50.3596 21.054C51.2459 21.054 52.0215 21.2649 52.6863 21.6868C53.3553 22.1087 53.8752 22.701 54.2459 23.4638C54.6209 24.2266 54.8084 25.1193 54.8084 26.142C54.8084 27.1562 54.6209 28.0426 54.2459 28.8011C53.8752 29.5597 53.3553 30.1499 52.6863 30.5717C52.0215 30.9936 51.2459 31.2045 50.3596 31.2045ZM50.3596 29.8494C51.0328 29.8494 51.5868 29.6768 52.0215 29.3317C52.4561 28.9865 52.7779 28.5327 52.9867 27.9702C53.1955 27.4077 53.2999 26.7983 53.2999 26.142C53.2999 25.4858 53.1955 24.8743 52.9867 24.3075C52.7779 23.7408 52.4561 23.2827 52.0215 22.9332C51.5868 22.5838 51.0328 22.4091 50.3596 22.4091C49.6863 22.4091 49.1323 22.5838 48.6976 22.9332C48.263 23.2827 47.9412 23.7408 47.7324 24.3075C47.5236 24.8743 47.4192 25.4858 47.4192 26.142C47.4192 26.7983 47.5236 27.4077 47.7324 27.9702C47.9412 28.5327 48.263 28.9865 48.6976 29.3317C49.1323 29.6768 49.6863 29.8494 50.3596 29.8494ZM56.0629 33.8125V29.5938H56.881C57.0813 29.3849 57.2539 29.1591 57.3988 28.9162C57.5437 28.6733 57.6694 28.3857 57.7759 28.0533C57.8867 27.7166 57.9805 27.3075 58.0572 26.826C58.1339 26.3402 58.2021 25.7543 58.2617 25.0682L58.5941 21.1818H64.8327V29.5938H66.3413V33.8125H64.8327V31H57.5714V33.8125H56.0629ZM58.5941 29.5938H63.3242V22.5881H60.0004L59.7447 25.0682C59.6381 26.0952 59.506 26.9922 59.3484 27.7592C59.1907 28.5263 58.9393 29.1378 58.5941 29.5938ZM68.3436 34.6818V21.1818H69.801V22.7415H69.9799C70.0907 22.571 70.2441 22.3537 70.4402 22.0895C70.6404 21.821 70.926 21.5824 71.2967 21.3736C71.6717 21.1605 72.1788 21.054 72.818 21.054C73.6447 21.054 74.3734 21.2607 75.0041 21.674C75.6348 22.0874 76.127 22.6733 76.4806 23.4318C76.8343 24.1903 77.0112 25.0852 77.0112 26.1165C77.0112 27.1562 76.8343 28.0575 76.4806 28.8203C76.127 29.5788 75.6369 30.1669 75.0105 30.5845C74.3841 30.9979 73.6618 31.2045 72.8436 31.2045C72.2129 31.2045 71.7079 31.1001 71.3287 30.8913C70.9494 30.6783 70.6575 30.4375 70.4529 30.169C70.2484 29.8963 70.0907 29.6705 69.9799 29.4915H69.8521V34.6818H68.3436ZM69.8265 26.0909C69.8265 26.8324 69.9352 27.4865 70.1525 28.0533C70.3699 28.6158 70.6873 29.0568 71.1049 29.3764C71.5225 29.6918 72.0339 29.8494 72.639 29.8494C73.2697 29.8494 73.796 29.6832 74.2179 29.3509C74.644 29.0142 74.9636 28.5625 75.1767 27.9957C75.394 27.4247 75.5027 26.7898 75.5027 26.0909C75.5027 25.4006 75.3961 24.7784 75.1831 24.2244C74.9743 23.6662 74.6568 23.2251 74.2306 22.9013C73.8088 22.5732 73.2782 22.4091 72.639 22.4091C72.0254 22.4091 71.5098 22.5646 71.0922 22.8757C70.6745 23.1825 70.3592 23.6129 70.1461 24.1669C69.9331 24.7166 69.8265 25.358 69.8265 26.0909ZM83.301 31.2045C82.4146 31.2045 81.6369 30.9936 80.9679 30.5717C80.3031 30.1499 79.7832 29.5597 79.4082 28.8011C79.0375 28.0426 78.8521 27.1562 78.8521 26.142C78.8521 25.1193 79.0375 24.2266 79.4082 23.4638C79.7832 22.701 80.3031 22.1087 80.9679 21.6868C81.6369 21.2649 82.4146 21.054 83.301 21.054C84.1873 21.054 84.9629 21.2649 85.6277 21.6868C86.2967 22.1087 86.8166 22.701 87.1873 23.4638C87.5623 24.2266 87.7498 25.1193 87.7498 26.142C87.7498 27.1562 87.5623 28.0426 87.1873 28.8011C86.8166 29.5597 86.2967 30.1499 85.6277 30.5717C84.9629 30.9936 84.1873 31.2045 83.301 31.2045ZM83.301 29.8494C83.9743 29.8494 84.5282 29.6768 84.9629 29.3317C85.3975 28.9865 85.7193 28.5327 85.9281 27.9702C86.1369 27.4077 86.2413 26.7983 86.2413 26.142C86.2413 25.4858 86.1369 24.8743 85.9281 24.3075C85.7193 23.7408 85.3975 23.2827 84.9629 22.9332C84.5282 22.5838 83.9743 22.4091 83.301 22.4091C82.6277 22.4091 82.0737 22.5838 81.639 22.9332C81.2044 23.2827 80.8826 23.7408 80.6738 24.3075C80.465 24.8743 80.3606 25.4858 80.3606 26.142C80.3606 26.7983 80.465 27.4077 80.6738 27.9702C80.8826 28.5327 81.2044 28.9865 81.639 29.3317C82.0737 29.6768 82.6277 29.8494 83.301 29.8494ZM97.3395 17.5L98.1065 18.4205C97.8082 18.7102 97.4631 18.9126 97.071 19.0277C96.679 19.1428 96.2358 19.2131 95.7415 19.2386C95.2472 19.2642 94.6974 19.2898 94.0923 19.3153C93.4105 19.3409 92.8459 19.5071 92.3984 19.8139C91.951 20.1207 91.6058 20.5639 91.3629 21.1435C91.12 21.723 90.9645 22.4347 90.8963 23.2784H91.0241C91.3565 22.6648 91.8168 22.2131 92.4048 21.9233C92.9929 21.6335 93.6236 21.4886 94.2969 21.4886C95.0639 21.4886 95.7543 21.6676 96.3679 22.0256C96.9815 22.3835 97.4673 22.9141 97.8253 23.6172C98.1832 24.3203 98.3622 25.1875 98.3622 26.2188C98.3622 27.2457 98.179 28.1321 97.8125 28.8778C97.4503 29.6236 96.9411 30.1989 96.2848 30.6037C95.6328 31.0043 94.8679 31.2045 93.9901 31.2045C93.1122 31.2045 92.343 30.9979 91.6825 30.5845C91.022 30.1669 90.5085 29.549 90.142 28.7308C89.7756 27.9084 89.5923 26.892 89.5923 25.6818V24.6335C89.5923 22.4474 89.9631 20.7898 90.7045 19.6605C91.4503 18.5312 92.571 17.9474 94.0668 17.9091C94.5952 17.892 95.0661 17.8878 95.4794 17.8963C95.8928 17.9048 96.2528 17.8857 96.5597 17.8388C96.8665 17.7919 97.1264 17.679 97.3395 17.5ZM93.9901 29.8494C94.5824 29.8494 95.0916 29.7003 95.5178 29.402C95.9482 29.1037 96.2784 28.6839 96.5085 28.1428C96.7386 27.5973 96.8537 26.956 96.8537 26.2188C96.8537 25.5028 96.7365 24.8935 96.5021 24.3906C96.272 23.8878 95.9418 23.5043 95.5114 23.2401C95.081 22.9759 94.5653 22.8438 93.9645 22.8438C93.5256 22.8438 93.1314 22.9183 92.782 23.0675C92.4325 23.2166 92.1342 23.4361 91.8871 23.7259C91.6399 24.0156 91.4482 24.3693 91.3118 24.7869C91.1797 25.2045 91.1094 25.6818 91.1009 26.2188C91.1009 27.3182 91.3587 28.1982 91.8743 28.8587C92.3899 29.5192 93.0952 29.8494 93.9901 29.8494ZM107.241 25.4006V26.8068H101.82V25.4006H107.241ZM102.178 21.1818V31H100.67V21.1818H102.178ZM108.391 21.1818V31H106.883V21.1818H108.391ZM115.263 31.2045C114.317 31.2045 113.501 30.9957 112.815 30.5781C112.133 30.1562 111.607 29.5682 111.236 28.8139C110.869 28.0554 110.686 27.1733 110.686 26.1676C110.686 25.1619 110.869 24.2756 111.236 23.5085C111.607 22.7372 112.122 22.1364 112.783 21.706C113.447 21.2713 114.223 21.054 115.109 21.054C115.621 21.054 116.126 21.1392 116.624 21.3097C117.123 21.4801 117.577 21.7571 117.986 22.1406C118.395 22.5199 118.721 23.0227 118.964 23.6491C119.207 24.2756 119.328 25.0469 119.328 25.9631V26.6023H111.76V25.2983H117.794C117.794 24.7443 117.683 24.25 117.462 23.8153C117.244 23.3807 116.933 23.0376 116.528 22.7862C116.128 22.5348 115.655 22.4091 115.109 22.4091C114.509 22.4091 113.989 22.5582 113.55 22.8565C113.115 23.1506 112.781 23.5341 112.546 24.0071C112.312 24.4801 112.195 24.9872 112.195 25.5284V26.3977C112.195 27.1392 112.322 27.7678 112.578 28.2834C112.838 28.7947 113.198 29.1847 113.658 29.4531C114.119 29.7173 114.653 29.8494 115.263 29.8494C115.659 29.8494 116.017 29.794 116.337 29.6832C116.661 29.5682 116.94 29.3977 117.174 29.1719C117.408 28.9418 117.589 28.6562 117.717 28.3153L119.175 28.7244C119.021 29.2188 118.763 29.6534 118.401 30.0284C118.039 30.3991 117.592 30.6889 117.059 30.8977C116.526 31.1023 115.928 31.2045 115.263 31.2045ZM125.739 31.2045C124.793 31.2045 123.977 30.9957 123.291 30.5781C122.609 30.1562 122.083 29.5682 121.712 28.8139C121.346 28.0554 121.163 27.1733 121.163 26.1676C121.163 25.1619 121.346 24.2756 121.712 23.5085C122.083 22.7372 122.599 22.1364 123.259 21.706C123.924 21.2713 124.7 21.054 125.586 21.054C126.097 21.054 126.602 21.1392 127.101 21.3097C127.599 21.4801 128.053 21.7571 128.462 22.1406C128.871 22.5199 129.197 23.0227 129.44 23.6491C129.683 24.2756 129.805 25.0469 129.805 25.9631V26.6023H122.237V25.2983H128.271C128.271 24.7443 128.16 24.25 127.938 23.8153C127.721 23.3807 127.41 23.0376 127.005 22.7862C126.604 22.5348 126.131 22.4091 125.586 22.4091C124.985 22.4091 124.465 22.5582 124.026 22.8565C123.592 23.1506 123.257 23.5341 123.023 24.0071C122.788 24.4801 122.671 24.9872 122.671 25.5284V26.3977C122.671 27.1392 122.799 27.7678 123.055 28.2834C123.315 28.7947 123.675 29.1847 124.135 29.4531C124.595 29.7173 125.13 29.8494 125.739 29.8494C126.136 29.8494 126.494 29.794 126.813 29.6832C127.137 29.5682 127.416 29.3977 127.651 29.1719C127.885 28.9418 128.066 28.6562 128.194 28.3153L129.651 28.7244C129.498 29.2188 129.24 29.6534 128.878 30.0284C128.516 30.3991 128.068 30.6889 127.536 30.8977C127.003 31.1023 126.404 31.2045 125.739 31.2045Z" fill="black"/>
</svg>
