<svg width="100" height="32" viewBox="0 0 100 32" fill="none" xmlns="http://www.w3.org/2000/svg">
<rect width="100" height="32" rx="15" fill="#DCE5E2"/>
<path d="M23.233 20V9.81818H26.7926C27.5019 9.81818 28.0869 9.94081 28.5476 10.1861C29.0083 10.428 29.3513 10.7545 29.5767 11.1655C29.8021 11.5732 29.9148 12.0256 29.9148 12.5227C29.9148 12.9602 29.8369 13.3215 29.6811 13.6065C29.5286 13.8916 29.3265 14.117 29.0746 14.2827C28.826 14.4484 28.5559 14.571 28.2642 14.6506V14.75C28.5758 14.7699 28.889 14.8793 29.2038 15.0781C29.5187 15.277 29.7822 15.562 29.9943 15.9332C30.2064 16.3045 30.3125 16.7585 30.3125 17.2955C30.3125 17.8059 30.1965 18.2649 29.9645 18.6726C29.7325 19.0803 29.3662 19.4034 28.8658 19.642C28.3653 19.8807 27.714 20 26.9119 20H23.233ZM24.4659 18.9062H26.9119C27.7173 18.9062 28.2891 18.7505 28.6271 18.4389C28.9685 18.1241 29.1392 17.7429 29.1392 17.2955C29.1392 16.9508 29.0514 16.6326 28.8757 16.3409C28.7 16.0459 28.4498 15.8106 28.125 15.6349C27.8002 15.456 27.4157 15.3665 26.9716 15.3665H24.4659V18.9062ZM24.4659 14.2926H26.7528C27.1241 14.2926 27.4588 14.2197 27.7571 14.0739C28.0587 13.928 28.2973 13.7225 28.473 13.4574C28.652 13.1922 28.7415 12.8807 28.7415 12.5227C28.7415 12.0753 28.5857 11.6958 28.2741 11.3842C27.9626 11.0694 27.4688 10.9119 26.7926 10.9119H24.4659V14.2926ZM40.9293 14.9091C40.9293 15.983 40.7354 16.911 40.3477 17.6932C39.9599 18.4754 39.4279 19.0786 38.7518 19.5028C38.0756 19.9271 37.3034 20.1392 36.435 20.1392C35.5666 20.1392 34.7944 19.9271 34.1183 19.5028C33.4421 19.0786 32.9102 18.4754 32.5224 17.6932C32.1346 16.911 31.9407 15.983 31.9407 14.9091C31.9407 13.8352 32.1346 12.9072 32.5224 12.125C32.9102 11.3428 33.4421 10.7396 34.1183 10.3153C34.7944 9.8911 35.5666 9.67898 36.435 9.67898C37.3034 9.67898 38.0756 9.8911 38.7518 10.3153C39.4279 10.7396 39.9599 11.3428 40.3477 12.125C40.7354 12.9072 40.9293 13.8352 40.9293 14.9091ZM39.7362 14.9091C39.7362 14.0275 39.5887 13.2834 39.2937 12.6768C39.002 12.0703 38.6059 11.6113 38.1055 11.2997C37.6083 10.9882 37.0515 10.8324 36.435 10.8324C35.8185 10.8324 35.2601 10.9882 34.7596 11.2997C34.2624 11.6113 33.8664 12.0703 33.5714 12.6768C33.2797 13.2834 33.1339 14.0275 33.1339 14.9091C33.1339 15.7907 33.2797 16.5348 33.5714 17.1413C33.8664 17.7479 34.2624 18.2069 34.7596 18.5185C35.2601 18.83 35.8185 18.9858 36.435 18.9858C37.0515 18.9858 37.6083 18.83 38.1055 18.5185C38.6059 18.2069 39.002 17.7479 39.2937 17.1413C39.5887 16.5348 39.7362 15.7907 39.7362 14.9091ZM43.0025 9.81818H44.2156V17.8324H44.315L49.8832 9.81818H51.0763V20H49.8434V12.0057H49.744L44.1957 20H43.0025V9.81818ZM48.0138 7.27273H49.1076C49.1076 7.80966 48.922 8.24882 48.5508 8.5902C48.1796 8.93158 47.6758 9.10227 47.0394 9.10227C46.413 9.10227 45.9142 8.93158 45.543 8.5902C45.1751 8.24882 44.9911 7.80966 44.9911 7.27273H46.0849C46.0849 7.53125 46.1561 7.75829 46.2987 7.95383C46.4445 8.14938 46.6914 8.24716 47.0394 8.24716C47.3874 8.24716 47.636 8.14938 47.7852 7.95383C47.9376 7.75829 48.0138 7.53125 48.0138 7.27273ZM52.9867 10.9119V9.81818H60.623V10.9119H57.4213V20H56.1884V10.9119H52.9867ZM62.5259 9.81818H63.739V17.8324H63.8384L69.4066 9.81818H70.5998V20H69.3668V12.0057H69.2674L63.7191 20H62.5259V9.81818Z" fill="black"/>
</svg>
