<svg width="176" height="21" viewBox="0 0 176 21" fill="none" xmlns="http://www.w3.org/2000/svg">
<g clip-path="url(#clip0_399_557)">
<path d="M15.5576 19L21.8713 0H25.8432L32.088 19H27.7947L23.0881 3.02821H24.5804L19.7591 19H15.5576Z" fill="black"/>
<path d="M58.3943 19C56.9918 19 55.7004 18.7587 54.5201 18.2762C53.34 17.7937 52.3051 17.1215 51.4157 16.2599C50.5434 15.3982 49.8592 14.39 49.3632 13.2354C48.8672 12.0635 48.6191 10.8055 48.6191 9.46122C48.6191 8.11701 48.8586 6.87619 49.3375 5.73878C49.8336 4.58413 50.5177 3.57596 51.3901 2.71429C52.2624 1.8526 53.2887 1.18912 54.4688 0.723811C55.6491 0.241271 56.9405 0 58.343 0C59.7456 0 61.037 0.241271 62.2173 0.723811C63.397 1.18912 64.4239 1.8526 65.2961 2.71429C66.1684 3.57596 66.8438 4.58413 67.3231 5.73878C67.8188 6.89342 68.0667 8.14286 68.0667 9.48705C68.0667 10.8313 67.8188 12.0807 67.3231 13.2354C66.8438 14.39 66.1684 15.4068 65.2961 16.2857C64.4239 17.1474 63.397 17.8195 62.2173 18.302C61.0541 18.7673 59.7798 19 58.3943 19ZM58.343 14.864C59.3692 14.864 60.2587 14.6399 61.0113 14.1919C61.7639 13.7437 62.3451 13.1147 62.7562 12.3047C63.1664 11.4948 63.372 10.5469 63.372 9.46122C63.372 8.66849 63.2519 7.94467 63.0127 7.2898C62.7899 6.63492 62.4565 6.07483 62.0118 5.60953C61.567 5.12699 61.0369 4.75646 60.4212 4.49796C59.8055 4.23945 59.1127 4.11021 58.343 4.11021C57.3167 4.11021 56.4273 4.33425 55.6747 4.78232C54.9222 5.21315 54.3406 5.83356 53.9301 6.64354C53.5195 7.45352 53.3143 8.39275 53.3143 9.46122C53.3143 10.2884 53.4255 11.0381 53.6479 11.7102C53.8873 12.3651 54.2294 12.9338 54.6741 13.4163C55.1188 13.8817 55.6491 14.2435 56.2648 14.502C56.8806 14.7433 57.5733 14.864 58.343 14.864Z" fill="black"/>
<path d="M114.797 20C113.254 20 111.833 19.7587 110.535 19.2762C109.237 18.7937 108.099 18.1215 107.12 17.2599C106.161 16.3982 105.408 15.39 104.862 14.2354C104.317 13.0635 104.044 11.8055 104.044 10.4612C104.044 9.11701 104.307 7.87619 104.834 6.73878C105.38 5.58413 106.132 4.57596 107.092 3.71429C108.051 2.8526 109.18 2.18912 110.479 1.72381C111.777 1.24127 113.197 1 114.74 1C116.283 1 117.704 1.24127 119.002 1.72381C120.3 2.18912 121.429 2.8526 122.389 3.71429C123.348 4.57596 124.091 5.58413 124.618 6.73878C125.164 7.89342 125.436 9.14286 125.436 10.487C125.436 11.8313 125.164 13.0807 124.618 14.2354C124.091 15.39 123.348 16.4068 122.389 17.2857C121.429 18.1474 120.3 18.8195 119.002 19.302C117.722 19.7673 116.321 20 114.797 20ZM114.74 15.864C115.869 15.864 116.847 15.6399 117.675 15.1919C118.503 14.7437 119.143 14.1147 119.595 13.3047C120.046 12.4948 120.272 11.5469 120.272 10.4612C120.272 9.66849 120.14 8.94467 119.877 8.2898C119.632 7.63492 119.265 7.07483 118.776 6.60953C118.287 6.12699 117.703 5.75646 117.026 5.49796C116.349 5.23945 115.587 5.11021 114.74 5.11021C113.611 5.11021 112.633 5.33425 111.805 5.78232C110.977 6.21315 110.338 6.83356 109.886 7.64354C109.434 8.45352 109.209 9.39275 109.209 10.4612C109.209 11.2884 109.331 12.0381 109.576 12.7102C109.839 13.3651 110.215 13.9338 110.704 14.4163C111.194 14.8817 111.777 15.2435 112.454 15.502C113.132 15.7433 113.894 15.864 114.74 15.864Z" fill="black"/>
<path d="M41.7273 19C40.354 19 39.0825 18.7664 37.9126 18.2992C36.7428 17.8147 35.7171 17.1485 34.8355 16.3006C33.9708 15.4354 33.2926 14.423 32.8009 13.2637C32.3262 12.1043 32.0889 10.8497 32.0889 9.49998C32.0889 8.13298 32.3262 6.87843 32.8009 5.73635C33.2926 4.57697 33.9708 3.57332 34.8355 2.72541C35.7171 1.8775 36.7343 1.2113 37.8872 0.726776C39.057 0.242258 40.3201 0 41.6765 0C43.1006 0 44.3806 0.233607 45.5166 0.700821C46.6525 1.15073 47.6529 1.78233 48.5175 2.59563L45.4658 5.71039C45.0418 5.22588 44.5163 4.84518 43.889 4.56831C43.2617 4.29144 42.5242 4.15301 41.6765 4.15301C40.9475 4.15301 40.2777 4.27414 39.6674 4.5164C39.074 4.75866 38.5569 5.12205 38.1161 5.60657C37.6753 6.07378 37.3277 6.63617 37.0734 7.29373C36.836 7.95128 36.7174 8.68675 36.7174 9.49998C36.7174 10.3133 36.836 11.0488 37.0734 11.7063C37.3277 12.3638 37.6753 12.9349 38.1161 13.4195C38.5569 13.8866 39.074 14.25 39.6674 14.5096C40.2777 14.7519 40.9475 14.873 41.6765 14.873C42.5242 14.873 43.2702 14.7432 43.9144 14.4837C44.5587 14.2068 45.1097 13.8174 45.5675 13.3156L48.6193 16.4304C47.7376 17.2436 46.7373 17.8753 45.6183 18.3252C44.5163 18.7751 43.2193 19 41.7273 19Z" fill="black"/>
<path d="M67.8611 20V16.694L78.7071 2.281L80.3891 4.224H68.6151V-0.300001H83.9271V2.977L73.1681 17.419L71.4281 15.65H84.2461V20H67.8611ZM94.182 20L86.062 -0.300001H91.224L95.11 9.937C95.342 10.5363 95.5353 11.068 95.69 11.532C95.864 11.996 96.009 12.431 96.125 12.837C96.2603 13.2237 96.386 13.62 96.502 14.026C96.618 14.4127 96.7437 14.8573 96.879 15.36H95.98C96.154 14.6833 96.3183 14.084 96.473 13.562C96.6277 13.04 96.8017 12.4987 96.995 11.938C97.1883 11.3773 97.43 10.7103 97.72 9.937L101.461 -0.300001H106.507L98.358 20H94.182Z" fill="black"/>
<path d="M145.462 20V-0.300001H159.614V3.934H150.305V15.766H159.933V20H145.462ZM147.811 11.706V7.646H158.338V11.706H147.811Z" fill="black"/>
<path d="M0 19V0H3.12625L4.47678 3.88575V19H0ZM12.2314 19L1.87592 4.90409L3.12625 0L13.507 14.0959L12.2314 19ZM12.2314 19L11.0804 15.007V0H15.558V19H12.2314Z" fill="black"/>
<path d="M127.381 19V0H130.507L131.858 3.88575V19H127.381ZM139.612 19L129.257 4.90409L130.507 0L140.888 14.0959L139.612 19ZM139.612 19L138.461 15.007V0H142.939V19H139.612Z" fill="black"/>
</g>
<defs>
<clipPath id="clip0_399_557">
<rect width="176" height="21" fill="white"/>
</clipPath>
</defs>
</svg>
